 
    <svg width="100%" height="100%" viewBox="0 0 44 44" fill="white" xmlns="http://www.w3.org/2000/svg">
      <path vector-effect="non-scaling-stroke" d="M43 22C43 33.598 33.598 43 22 43C10.402 43 1 33.598 1 22C1 10.402 10.402 1 22 1C33.598 1 43 10.402 43 22Z" stroke="#1C6FD1" stroke-width="2" stroke-miterlimit="10"/>
      <path d="M22 24.211C14.4668 24.211 8.35999 29.5735 8.35999 36.1886C8.35999 37.1234 8.48211 38.0332 8.71281 38.9063C12.4073 41.8295 17.0491 43.571 22.0909 43.571C27.0277 43.571 31.5808 41.9013 35.2368 39.0876C35.4996 38.1592 35.64 37.1883 35.64 36.1886C35.64 29.5735 29.5332 24.211 22 24.211Z" fill="#1C6FD1"/>
      <path d="M22 25.5407C26.6171 25.5407 30.36 21.7978 30.36 17.1807C30.36 12.5636 26.6171 8.82068 22 8.82068C17.3829 8.82068 13.64 12.5636 13.64 17.1807C13.64 21.7978 17.3829 25.5407 22 25.5407Z" fill="#1C6FD1"/>
    </svg>
  